<svg width="201" height="48" viewBox="0 0 201 48" fill="none" xmlns="http://www.w3.org/2000/svg">
<path d="M30.1224 21.353C28.9867 22.6997 28.4191 24.5726 28.5741 26.4625L28.5474 26.4311C28.7067 28.655 28.026 30.8486 26.6868 32.4268C25.3476 34.0049 23.4862 34.8071 21.599 34.6194L21.6257 34.6508C19.3407 34.4001 17.1678 35.8648 16.1926 38.3128C15.2175 40.7609 15.6496 43.6666 17.273 45.578C18.8965 47.4894 21.3626 47.996 23.439 46.8446C25.5155 45.6933 26.7564 43.1312 26.5417 40.4388L26.5698 40.4702C26.4105 38.2462 27.0912 36.0526 28.4304 34.4745C29.7696 32.8963 31.631 32.0941 33.5182 32.2818L33.4901 32.2504C36.0013 32.5166 38.338 30.7121 39.1334 27.8926C39.9288 25.073 38.9739 21.9791 36.8273 20.4204C34.6807 18.8618 31.9063 19.248 30.1269 21.353H30.1224Z" fill="#5454D4"/>
<path d="M19.2025 30.5374L19.1744 30.506C20.779 30.6965 22.3715 30.0278 23.5124 28.6844C24.6532 27.341 25.2219 25.4648 25.0614 23.5737L25.0895 23.6051C24.9302 21.3811 25.611 19.1875 26.9501 17.6094C28.2893 16.0312 30.1508 15.229 32.0379 15.4167L32.0098 15.3853C34.2949 15.6382 36.4692 14.1752 37.4458 11.7275C38.4224 9.27979 37.9916 6.37323 36.3687 4.46068C34.7457 2.54813 32.2793 2.04039 30.2022 3.19127C28.1252 4.34215 26.8837 6.90444 27.0983 9.59735L27.0716 9.56421C27.2315 11.7883 26.5509 13.9823 25.2116 15.5606C23.8723 17.1389 22.0105 17.9409 20.1232 17.7525L20.1499 17.7857C18.5452 17.5951 16.9527 18.2638 15.8118 19.6073C14.671 20.9507 14.1023 22.8268 14.2628 24.718L14.2362 24.6866C14.395 26.9104 13.7141 29.1036 12.375 30.6816C11.0359 32.2596 9.17482 33.062 7.28778 32.8749L7.31442 32.9063C5.02929 32.6534 2.855 34.1165 1.87839 36.5642C0.90178 39.0119 1.33263 41.9184 2.95557 43.831C4.57852 45.7435 7.04495 46.2513 9.122 45.1004C11.199 43.9495 12.4406 41.3872 12.226 38.6943L12.2541 38.7257C12.0948 36.5018 12.7755 34.3082 14.1147 32.73C15.4539 31.1519 17.3153 30.3497 19.2025 30.5374V30.5374Z" fill="#FF7143"/>
<path d="M9.28171 27.0364C10.4177 25.69 10.9848 23.8167 10.8286 21.927L10.8567 21.9584C10.6973 19.7338 11.3784 17.5396 12.7183 15.9613C14.0581 14.383 15.9204 13.5813 17.8081 13.7701L17.78 13.7387C20.0643 13.9909 22.2375 12.5279 23.2135 10.081C24.1896 7.63411 23.7587 4.7287 22.1364 2.81686C20.5141 0.905013 18.0486 0.39731 15.9722 1.54749C13.8958 2.69767 12.6544 5.25872 12.8684 7.95069L12.8418 7.91929C13.0011 10.1432 12.3203 12.3368 10.9812 13.915C9.64198 15.4931 7.78054 16.2953 5.89336 16.1076L5.92001 16.139C3.40888 15.8736 1.07266 17.6785 0.277732 20.4981C-0.517197 23.3177 0.437973 26.4112 2.58459 27.9695C4.73121 29.5278 7.50542 29.1414 9.28467 27.0364H9.28171Z" fill="#5454D4"/>
<path d="M55.1361 9.63757H59.5325V34.8497H55.1361V9.63757Z" fill="#19191B"/>
<path fill-rule="evenodd" clip-rule="evenodd" d="M66.7954 17.7342C63.8941 19.1624 62.0097 22.5112 62.0223 26.2165C62.0071 28.6461 62.8215 30.9809 64.2823 32.6955C65.7431 34.4102 67.7276 35.3605 69.7893 35.3328C72.9336 35.3328 75.7676 33.0988 76.968 29.674C78.1683 26.2493 77.4981 22.3096 75.2703 19.6948C73.0425 17.0799 69.6967 16.3059 66.7954 17.7342ZM69.7268 22.3532C71.5767 22.3129 73.1087 24.0368 73.1598 26.2164C73.2098 27.2969 72.874 28.3528 72.2337 29.1285C71.5935 29.9041 70.7072 30.329 69.7892 30.3001C67.939 30.3002 66.4343 28.5434 66.4171 26.3631C66.4 24.1828 67.8769 22.3934 69.7268 22.3532Z" fill="#19191B"/>
<path fill-rule="evenodd" clip-rule="evenodd" d="M95.0783 33.9792V17.5816L90.7989 17.5782V19.34C89.7549 17.8347 88.1672 17.0018 86.5194 17.095C82.4998 17.2443 79.3069 21.1275 79.3069 25.8668C79.3069 30.606 82.4998 34.4892 86.5194 34.6386C88.1672 34.7318 89.7549 33.8989 90.7989 32.3935V33.9722C90.8724 35.0138 90.5404 36.0384 89.8963 36.757C89.2523 37.4756 88.366 37.8104 87.4875 37.6669C86.0978 37.8341 84.7661 36.967 84.1465 35.4916L80.3955 38.0472C81.863 40.8649 84.5433 42.4806 87.3409 42.2338C91.2385 42.2338 95.0783 39.7812 95.0783 33.9792ZM88.7112 21.8784C90.0338 22.5812 90.8608 24.1611 90.8003 25.8693C90.8277 26.9723 90.458 28.0375 89.7827 28.8018C89.1073 29.5661 88.1892 29.9583 87.2551 29.8815C85.8043 29.8836 84.4982 28.8459 83.9558 27.2602C83.4133 25.6745 83.7436 23.8594 84.79 22.6752C85.8364 21.491 87.3887 21.1755 88.7112 21.8784Z" fill="#19191B"/>
<path fill-rule="evenodd" clip-rule="evenodd" d="M102.341 17.7342C99.4399 19.1624 97.5555 22.5112 97.5681 26.2165C97.5528 28.6461 98.3673 30.9809 99.8281 32.6955C101.289 34.4102 103.273 35.3605 105.335 35.3328C108.479 35.3328 111.313 33.0988 112.514 29.674C113.714 26.2493 113.044 22.3096 110.816 19.6948C108.588 17.0799 105.242 16.3059 102.341 17.7342ZM105.273 22.3532C107.123 22.3129 108.654 24.0368 108.706 26.2164C108.756 27.2969 108.42 28.3528 107.78 29.1285C107.139 29.9041 106.253 30.329 105.335 30.3001C103.485 30.3002 101.98 28.5434 101.963 26.3631C101.946 24.1828 103.423 22.3934 105.273 22.3532Z" fill="#19191B"/>
<path fill-rule="evenodd" clip-rule="evenodd" d="M116.781 10.0818C115.795 10.563 115.152 11.6964 115.152 12.9537C115.167 14.6635 116.339 16.0453 117.79 16.0623C118.857 16.0623 119.819 15.3049 120.227 14.1433C120.635 12.9817 120.41 11.6447 119.655 10.7557C118.901 9.86662 117.766 9.60066 116.781 10.0818ZM119.994 17.5816H115.596L115.59 34.8514H119.994V17.5816Z" fill="#19191B"/>
<path fill-rule="evenodd" clip-rule="evenodd" d="M137.084 32.4911C138.398 30.78 139.08 28.5217 138.977 26.2165C139.081 23.9109 138.399 21.6518 137.085 19.9402C135.77 18.2286 133.93 17.2057 131.973 17.0984C130.323 16.9924 128.72 17.7654 127.607 19.2039V17.5816H123.211V41.7575H127.607V33.2256C128.72 34.6651 130.323 35.4389 131.973 35.3328C133.929 35.225 135.769 34.2023 137.084 32.4911ZM131.036 22.21C132.951 22.1723 134.533 23.9606 134.581 26.2164C134.647 27.3374 134.304 28.4385 133.639 29.2431C132.973 30.0476 132.047 30.4791 131.095 30.4292C129.18 30.4294 127.623 28.6103 127.607 26.3539C127.591 24.0975 129.122 22.2478 131.036 22.21Z" fill="#19191B"/>
<path d="M152.544 29.6688C152.544 33.6409 149.614 35.333 146.45 35.333C143.833 35.6122 141.337 33.984 140.148 31.2231L143.957 28.6675C144.274 29.9528 145.311 30.802 146.444 30.705C147.498 30.705 148.026 30.3247 148.026 29.6357C148.026 27.7343 140.816 28.7373 140.816 22.7627C140.816 18.9965 143.513 17.0985 146.561 17.0985C148.894 17.0115 151.083 18.427 152.275 20.7932L148.524 23.1761C148.187 22.2513 147.414 21.6531 146.561 21.6567C145.798 21.6567 145.329 22.0056 145.329 22.6231C145.335 24.5926 152.544 23.279 152.544 29.6688Z" fill="#19191B"/>
<path d="M168.603 17.5815V34.8513H164.207V33.2273C163.178 34.681 161.62 35.4647 160.018 35.3345C157.057 35.3345 154.541 32.8487 154.541 28.1824V17.5815H158.937V27.4236C158.863 28.2561 159.103 29.085 159.594 29.6899C160.085 30.2948 160.777 30.6143 161.486 30.5635C163.098 30.5635 164.211 29.4593 164.211 27.0067V17.5868L168.603 17.5815Z" fill="#19191B"/>
<path d="M193.812 24.2471V34.8497H189.416V24.6954C189.416 22.9684 188.713 21.8642 187.307 21.8642C185.841 21.8642 185.02 23.0731 185.02 25.1105V34.8497H180.625V24.6954C180.625 22.9684 179.922 21.8642 178.514 21.8642C177.048 21.8642 176.228 23.0731 176.228 25.1105V34.8497H171.832V17.5799H176.228V19.1673C177.154 17.7363 178.633 16.9566 180.155 17.0967C181.686 17.0085 183.143 17.8734 183.994 19.3749C184.984 17.8052 186.589 16.9449 188.244 17.0967C191.608 17.0984 193.812 19.9296 193.812 24.2471Z" fill="#19191B"/>
<path d="M197.531 17.4752C199.333 17.4752 200.793 15.7538 200.793 13.6305C200.793 11.5071 199.333 9.78577 197.531 9.78577C195.729 9.78577 194.268 11.5071 194.268 13.6305C194.268 15.7538 195.729 17.4752 197.531 17.4752Z" fill="#19191B"/>
</svg>
